<?xml version="1.0" encoding="UTF-8"?>
<svg xmlns="http://www.w3.org/2000/svg"
     xmlns:xlink="http://www.w3.org/1999/xlink"
     width="1600" height="884" viewBox="0 0 1600 884"
     role="img" aria-labelledby="title desc">
  <title id="title">Norva multi-screen ecosystem</title>
  <desc id="desc">Vector illustration showing Norva on the Web, Android TV, Android phone and Android tablet with synced playback progress.</desc>

  <defs>
    <radialGradient id="glowCyan">
      <stop offset="0" stop-color="#63f1e2" stop-opacity=".42"/>
      <stop offset=".45" stop-color="#398de8" stop-opacity=".16"/>
      <stop offset="1" stop-color="#398de8" stop-opacity="0"/>
    </radialGradient>

    <radialGradient id="glowPurple">
      <stop offset="0" stop-color="#b15cff" stop-opacity=".34"/>
      <stop offset=".5" stop-color="#7b3ff2" stop-opacity=".13"/>
      <stop offset="1" stop-color="#7b3ff2" stop-opacity="0"/>
    </radialGradient>

    <!-- Product UI -->
    <linearGradient id="deviceFrame" x1="0" y1="0" x2="0" y2="1">
      <stop offset="0" stop-color="#4f5f7f"/>
      <stop offset=".13" stop-color="#18233b"/>
      <stop offset="1" stop-color="#080e1d"/>
    </linearGradient>

    <linearGradient id="screenBg" x1="0" y1="0" x2="1" y2="1">
      <stop offset="0" stop-color="#121d38"/>
      <stop offset="1" stop-color="#17102f"/>
    </linearGradient>

    <linearGradient id="accent" x1="0" y1="0" x2="1" y2="0">
      <stop offset="0" stop-color="#68e5d3"/>
      <stop offset=".48" stop-color="#7c6aff"/>
      <stop offset="1" stop-color="#ea79ba"/>
    </linearGradient>

    <linearGradient id="accentSoft" x1="0" y1="0" x2="1" y2="1">
      <stop offset="0" stop-color="#72ead9"/>
      <stop offset="1" stop-color="#8e62ff"/>
    </linearGradient>

    <linearGradient id="hubRing" x1="0" y1="0" x2="1" y2="1">
      <stop offset="0" stop-color="#65eadb"/>
      <stop offset=".52" stop-color="#6e83ff"/>
      <stop offset="1" stop-color="#b16cff"/>
    </linearGradient>

    <linearGradient id="titlePill" x1="0" y1="0" x2="1" y2="1">
      <stop offset="0" stop-color="#142541" stop-opacity=".95"/>
      <stop offset="1" stop-color="#202547" stop-opacity=".9"/>
    </linearGradient>

    <linearGradient id="progressTrack" x1="0" y1="0" x2="1" y2="0">
      <stop offset="0" stop-color="#25324f"/>
      <stop offset="1" stop-color="#37405b"/>
    </linearGradient>

    <!-- Orbital Dawn artwork -->
    <linearGradient id="sky" x1="0" y1="0" x2="0" y2="1">
      <stop offset="0" stop-color="#15133b"/>
      <stop offset=".45" stop-color="#3a2359"/>
      <stop offset=".78" stop-color="#b45977"/>
      <stop offset="1" stop-color="#f19370"/>
    </linearGradient>

    <radialGradient id="sun">
      <stop offset="0" stop-color="#ffe4a5"/>
      <stop offset=".55" stop-color="#ffad5e"/>
      <stop offset="1" stop-color="#f47c67"/>
    </radialGradient>

    <linearGradient id="mountainA" x1="0" y1="0" x2="1" y2="1">
      <stop offset="0" stop-color="#785fe3"/>
      <stop offset="1" stop-color="#38256f"/>
    </linearGradient>

    <linearGradient id="mountainB" x1="0" y1="0" x2="1" y2="1">
      <stop offset="0" stop-color="#48379c"/>
      <stop offset="1" stop-color="#1c194f"/>
    </linearGradient>

    <!-- Connection strokes -->
    <linearGradient id="lineCyan" x1="0" y1="0" x2="1" y2="0">
      <stop offset="0" stop-color="#55eadc" stop-opacity=".18"/>
      <stop offset=".55" stop-color="#55eadc" stop-opacity=".92"/>
      <stop offset="1" stop-color="#7d73ff" stop-opacity=".5"/>
    </linearGradient>

    <linearGradient id="linePurple" x1="0" y1="0" x2="1" y2="0">
      <stop offset="0" stop-color="#7d73ff" stop-opacity=".28"/>
      <stop offset=".45" stop-color="#d275ff" stop-opacity=".9"/>
      <stop offset="1" stop-color="#55eadc" stop-opacity=".45"/>
    </linearGradient>

    <!-- Reusable artwork -->
    <symbol id="orbitalArtwork" viewBox="0 0 600 240">
      <rect width="600" height="240" rx="18" fill="url(#sky)"/>
      <g opacity=".72">
        <circle cx="72" cy="38" r="2.2" fill="#fff"/>
        <circle cx="128" cy="62" r="1.4" fill="#c7d8ff"/>
        <circle cx="194" cy="26" r="1.8" fill="#fff"/>
        <circle cx="248" cy="53" r="1.2" fill="#d6c4ff"/>
        <circle cx="331" cy="31" r="1.6" fill="#fff"/>
        <circle cx="391" cy="65" r="1.3" fill="#f6d9ff"/>
        <circle cx="465" cy="28" r="1.9" fill="#fff"/>
        <circle cx="528" cy="56" r="1.4" fill="#c9eaff"/>
      </g>
      <circle cx="494" cy="65" r="38" fill="url(#sun)"/>
      <circle cx="494" cy="65" r="58" fill="#ffb26f" opacity=".12"/>
      <path d="M0 190 L105 98 L210 190 Z" fill="url(#mountainA)"/>
      <path d="M95 190 L248 74 L393 190 Z" fill="url(#mountainB)"/>
      <path d="M255 190 L408 88 L555 190 Z" fill="url(#mountainA)"/>
      <path d="M420 190 L520 120 L600 190 Z" fill="url(#mountainB)"/>
      <path d="M0 188 L94 132 L167 188 Z" fill="#8c65ef" opacity=".72"/>
      <rect y="188" width="600" height="52" fill="#16133a" opacity=".68"/>
    </symbol>

    <!-- Norva logo -->
    <symbol id="norvaMark" viewBox="0 0 48 48">
      <rect x="2" y="2" width="44" height="44" rx="13" fill="#171d3a" stroke="#6976b7" stroke-width="2"/>
      <path d="M12 34 V14 L34 34 V14"
            fill="none" stroke="url(#accent)" stroke-width="6"
            stroke-linecap="round" stroke-linejoin="round"/>
    </symbol>

    <!-- Clip paths -->
    <clipPath id="clipWebScreen">
      <rect x="78" y="158" width="624" height="288" rx="16"/>
    </clipPath>
    <clipPath id="clipTvScreen">
      <rect x="860" y="165" width="640" height="300" rx="22"/>
    </clipPath>
    <clipPath id="clipMobileScreen">
      <rect x="168" y="518" width="234" height="314" rx="36"/>
    </clipPath>
    <clipPath id="clipTabletScreen">
      <rect x="842" y="556" width="566" height="258" rx="24"/>
    </clipPath>

    <style><![CDATA[
      #title-badge {
        animation: badgeLift 6.8s ease-in-out infinite;
        transform-box: fill-box;
        transform-origin: center;
      }

      #platform-strip {
        animation: stripLift 7.6s ease-in-out infinite;
        transform-box: fill-box;
        transform-origin: center;
      }

      #connections .connection-flow {
        stroke-dasharray: 18 34;
        animation: connectionFlow 4.8s linear infinite;
      }

      #connections .connection-base {
        animation: connectionBreath 5.4s ease-in-out infinite;
      }

      #connections .connection-node,
      #sync-hub .hub-node,
      #title-badge .status-dot {
        animation: nodePulse 3.2s ease-in-out infinite;
        transform-box: fill-box;
        transform-origin: center;
      }

      #connections .connection-node:nth-child(2),
      #sync-hub .hub-node:nth-child(2) {
        animation-delay: .35s;
      }

      #connections .connection-node:nth-child(3),
      #sync-hub .hub-node:nth-child(3) {
        animation-delay: .7s;
      }

      #connections .connection-node:nth-child(4),
      #sync-hub .hub-node:nth-child(4) {
        animation-delay: 1.05s;
      }

      #sync-hub .sync-outer {
        animation: hubBreathe 5s ease-in-out infinite;
        transform-box: fill-box;
        transform-origin: center;
      }

      #sync-hub .sync-core {
        animation: hubCore 3.6s ease-in-out infinite;
        transform-box: fill-box;
        transform-origin: center;
      }

      .progress-fill {
        animation: progressBreathe 4.4s ease-in-out infinite;
      }

      @keyframes badgeLift {
        0%, 100% { transform: translateY(0); opacity: .98; }
        50% { transform: translateY(-8px); opacity: 1; }
      }

      @keyframes stripLift {
        0%, 100% { transform: translateY(0); opacity: .92; }
        50% { transform: translateY(5px); opacity: 1; }
      }

      @keyframes connectionFlow {
        from { stroke-dashoffset: 0; }
        to { stroke-dashoffset: -52; }
      }

      @keyframes connectionBreath {
        0%, 100% { opacity: .74; }
        50% { opacity: 1; }
      }

      @keyframes nodePulse {
        0%, 100% { transform: scale(1); opacity: .74; }
        50% { transform: scale(1.34); opacity: 1; }
      }

      @keyframes hubBreathe {
        0%, 100% { transform: scale(1); opacity: .96; }
        50% { transform: scale(1.035); opacity: 1; }
      }

      @keyframes hubCore {
        0%, 100% { transform: scale(1); opacity: .9; }
        50% { transform: scale(1.08); opacity: 1; }
      }

      @keyframes progressBreathe {
        0%, 100% { opacity: .82; }
        50% { opacity: 1; }
      }

      @media (prefers-reduced-motion: reduce) {
        #title-badge,
        #platform-strip,
        #connections .connection-flow,
        #connections .connection-base,
        #connections .connection-node,
        #sync-hub .hub-node,
        #title-badge .status-dot,
        #sync-hub .sync-outer,
        #sync-hub .sync-core,
        .progress-fill {
          animation: none !important;
        }
      }
    ]]></style>
  </defs>

  <!-- =========================================================
       TOP TITLE
       ========================================================= -->
  <g id="title-badge">
    <rect x="480" y="8" width="640" height="74" rx="37"
          fill="url(#titlePill)" stroke="#6ddfd4" stroke-opacity=".72" stroke-width="1.7"/>
    <rect x="488" y="16" width="624" height="58" rx="29"
          fill="none" stroke="#fff" stroke-opacity=".07"/>
    <circle class="status-dot" cx="532" cy="45" r="20" fill="#75e6d7" opacity=".14"/>
    <circle class="status-dot" cx="532" cy="45" r="14" fill="#75e6d7"/>
    <path class="status-check" d="M524 45 l6 6 11-14" fill="none" stroke="#10213d" stroke-width="4.5"
          stroke-linecap="round" stroke-linejoin="round"/>
    <text x="836" y="56" text-anchor="middle" fill="#fff" font-size="29" font-weight="750"
          font-family="Inter, Arial, sans-serif">One progress. Every screen.</text>
  </g>

  <!-- =========================================================
       CONNECTIONS
       ========================================================= -->
  <g id="connections" fill="none" stroke-linecap="round">
    <path class="connection-flow" d="M800 490 C760 445 742 409 704 390"
          stroke="url(#lineCyan)" stroke-width="4"/>
    <path class="connection-flow" d="M800 490 C845 444 862 418 890 392"
          stroke="url(#linePurple)" stroke-width="4"/>
    <path class="connection-flow" d="M800 500 C690 548 555 580 414 627"
          stroke="url(#lineCyan)" stroke-width="4"/>
    <path class="connection-flow" d="M800 500 C830 548 838 575 850 621"
          stroke="url(#linePurple)" stroke-width="4"/>

    <path class="connection-base" d="M800 490 C760 445 742 409 704 390"
          stroke="#72eadc" stroke-opacity=".34" stroke-width="10"/>
    <path class="connection-base" d="M800 490 C845 444 862 418 890 392"
          stroke="#b26aff" stroke-opacity=".28" stroke-width="10"/>
    <path class="connection-base" d="M800 500 C690 548 555 580 414 627"
          stroke="#72eadc" stroke-opacity=".22" stroke-width="10"/>
    <path class="connection-base" d="M800 500 C830 548 838 575 850 621"
          stroke="#b26aff" stroke-opacity=".22" stroke-width="10"/>

    <g fill="#79e7da" stroke="#d9fffb" stroke-width="1">
      <circle class="connection-node" cx="704" cy="390" r="5"/>
      <circle class="connection-node" cx="890" cy="392" r="5"/>
      <circle class="connection-node" cx="414" cy="627" r="5"/>
      <circle class="connection-node" cx="850" cy="621" r="5"/>
    </g>
  </g>

  <!-- =========================================================
       WEB / LAPTOP
       ========================================================= -->
  <g id="web-device" transform="rotate(-1.3 390 330)">
    <rect x="60" y="140" width="660" height="342" rx="28"
          fill="url(#deviceFrame)" stroke="#7081a8" stroke-width="3"/>
    <rect x="72" y="152" width="636" height="306" rx="19"
          fill="#080d1b" stroke="#1a2a49" stroke-width="2"/>
    <rect x="78" y="158" width="624" height="288" rx="16" fill="url(#screenBg)"/>

    <g clip-path="url(#clipWebScreen)">
      <!-- Browser chrome -->
      <rect x="78" y="158" width="624" height="43" fill="#151d35"/>
      <circle cx="98" cy="179" r="6" fill="#ff8278"/>
      <circle cx="118" cy="179" r="6" fill="#ffca6f"/>
      <circle cx="138" cy="179" r="6" fill="#61d5ad"/>
      <rect x="177" y="168" width="330" height="23" rx="11.5"
            fill="#202946" stroke="#47557d" stroke-width="1"/>
      <path d="M194 179 v-3 a4 4 0 0 1 8 0 v3" fill="none" stroke="#72e5d7" stroke-width="1.5"/>
      <rect x="193" y="179" width="10" height="8" rx="2" fill="#72e5d7"/>
      <text x="212" y="184" fill="#c8d2eb" font-size="13" font-family="Inter, Arial, sans-serif">app.norva.tv</text>
      <rect x="540" y="168" width="136" height="23" rx="11.5" fill="#222b4b"/>
      <text x="608" y="184" text-anchor="middle" fill="#fff" font-size="12" font-weight="700"
            font-family="Inter, Arial, sans-serif">Adrien profile</text>

      <!-- App header -->
      <rect x="78" y="201" width="624" height="59" fill="#121a31"/>
      <use xlink:href="#norvaMark" x="102" y="211" width="34" height="34"/>
      <text x="148" y="237" fill="#fff" font-size="22" font-weight="760"
            font-family="Inter, Arial, sans-serif">Norva</text>
      <text x="273" y="236" fill="#fff" font-size="14" font-weight="700"
            font-family="Inter, Arial, sans-serif">Home</text>
      <text x="336" y="236" fill="#aab4cd" font-size="14"
            font-family="Inter, Arial, sans-serif">Movies</text>
      <text x="384" y="236" fill="#7e8aa8" font-size="14"
            font-family="Inter, Arial, sans-serif">Series</text>

      <!-- Content -->
      <use xlink:href="#orbitalArtwork" x="103" y="270" width="574" height="154"/>
      <rect x="103" y="270" width="574" height="154" rx="18"
            fill="url(#screenBg)" opacity=".14"/>
      <rect x="121" y="287" width="72" height="26" rx="13"
            fill="#141c34" stroke="#7181aa" stroke-width="1"/>
      <circle cx="139" cy="300" r="4.5" fill="#73e4d5"/>
      <text x="152" y="305" fill="#fff" font-size="12" font-weight="700"
            font-family="Inter, Arial, sans-serif">Web</text>
      <text x="122" y="337" fill="#d8d9f5" font-size="13" font-weight="700" letter-spacing="2"
            font-family="Inter, Arial, sans-serif">CONTINUE WATCHING</text>
      <text x="122" y="372" fill="#fff" font-size="34" font-weight="800"
            font-family="Inter, Arial, sans-serif">Orbital Dawn</text>
      <text x="122" y="396" fill="#e9e6f8" font-size="15" font-weight="650"
            font-family="Inter, Arial, sans-serif">S2 E4 - Resume at 23:41</text>
      <rect x="122" y="407" width="420" height="7" rx="3.5" fill="#34374f"/>
      <rect class="progress-fill" x="122" y="407" width="200" height="7" rx="3.5" fill="url(#accent)"/>
      <circle cx="322" cy="410.5" r="6.5" fill="#fff"/>
    </g>

    <!-- Laptop base -->
    <path d="M92 482 H690 L726 510 H56 Z" fill="url(#deviceFrame)" stroke="#7081a8" stroke-width="2"/>
    <path d="M300 482 H480 L493 494 H287 Z" fill="#8c98b3" opacity=".42"/>
    <rect x="245" y="510" width="300" height="10" rx="5" fill="#0b1120"/>
  </g>

  <!-- =========================================================
       ANDROID TV
       ========================================================= -->
  <g id="android-tv" transform="rotate(1.1 1180 320)">
    <rect x="840" y="145" width="680" height="344" rx="36"
          fill="url(#deviceFrame)" stroke="#7180a2" stroke-width="3"/>
    <rect x="853" y="158" width="654" height="318" rx="27"
          fill="#080d1a" stroke="#17284a" stroke-width="2"/>
    <rect x="860" y="165" width="640" height="300" rx="22" fill="url(#screenBg)"/>

    <g clip-path="url(#clipTvScreen)">
      <use xlink:href="#orbitalArtwork" x="860" y="165" width="640" height="300"/>
      <rect x="860" y="165" width="640" height="300" fill="#0a0f26" opacity=".21"/>
      <rect x="860" y="165" width="640" height="95" fill="#0c1227" opacity=".32"/>

      <use xlink:href="#norvaMark" x="887" y="185" width="38" height="38"/>
      <text x="938" y="214" fill="#fff" font-size="22" font-weight="760"
            font-family="Inter, Arial, sans-serif">Norva</text>

      <rect x="1318" y="185" width="155" height="29" rx="14.5"
            fill="#121b34" stroke="#68799f" stroke-width="1"/>
      <circle cx="1338" cy="199.5" r="5" fill="#72e4d5"/>
      <text x="1352" y="205" fill="#fff" font-size="12" font-weight="700"
            font-family="Inter, Arial, sans-serif">Android TV</text>

      <text x="890" y="275" fill="#d8d9f5" font-size="15" font-weight="750" letter-spacing="3"
            font-family="Inter, Arial, sans-serif">CONTINUE WATCHING</text>
      <text x="890" y="322" fill="#fff" font-size="42" font-weight="820"
            font-family="Inter, Arial, sans-serif">Orbital Dawn</text>
      <text x="890" y="349" fill="#f0eaf8" font-size="18" font-weight="650"
            font-family="Inter, Arial, sans-serif">Season 2 - Episode 4 - 26 min left</text>

      <rect x="890" y="367" width="134" height="44" rx="22" fill="#fff"/>
      <circle cx="914" cy="389" r="12" fill="#6b61de"/>
      <path d="M910 382 L910 396 L920 389 Z" fill="#fff"/>
      <text x="936" y="396" fill="#14182b" font-size="16" font-weight="800"
            font-family="Inter, Arial, sans-serif">Resume</text>

      <text x="1045" y="394" fill="#fff" font-size="13" font-weight="700"
            font-family="Inter, Arial, sans-serif">23:41</text>
      <rect x="1092" y="383" width="305" height="8" rx="4" fill="#3a3b57"/>
      <rect class="progress-fill" x="1092" y="383" width="145" height="8" rx="4" fill="url(#accent)"/>
      <circle cx="1237" cy="387" r="7" fill="#fff"/>
      <text x="1416" y="394" fill="#fff" font-size="13" font-weight="700"
            font-family="Inter, Arial, sans-serif">49:41</text>
    </g>

    <!-- TV stand -->
    <path d="M1120 489 H1240 L1270 544 H1090 Z" fill="url(#deviceFrame)" stroke="#6f7f9f" stroke-width="2"/>
    <rect x="1030" y="541" width="300" height="14" rx="7" fill="#35415e" stroke="#7a88a6" stroke-width="1.5"/>
  </g>

  <!-- =========================================================
       MOBILE ANDROID
       ========================================================= -->
  <g id="mobile-android" transform="rotate(-2.3 285 675)">
    <rect x="150" y="500" width="270" height="350" rx="54"
          fill="url(#deviceFrame)" stroke="#7785a4" stroke-width="3"/>
    <rect x="161" y="511" width="248" height="328" rx="43"
          fill="#080d1a" stroke="#1a2947" stroke-width="2"/>
    <rect x="168" y="518" width="234" height="314" rx="36" fill="url(#screenBg)"/>

    <g clip-path="url(#clipMobileScreen)">
      <rect x="168" y="518" width="234" height="314" fill="#10182d"/>
      <use xlink:href="#norvaMark" x="184" y="540" width="30" height="30"/>
      <text x="222" y="563" fill="#fff" font-size="18" font-weight="760"
            font-family="Inter, Arial, sans-serif">Norva</text>

      <rect x="303" y="540" width="80" height="25" rx="12.5"
            fill="#121b34" stroke="#65779b" stroke-width="1"/>
      <circle cx="318" cy="552.5" r="4" fill="#72e4d5"/>
      <text x="329" y="557" fill="#fff" font-size="10.5" font-weight="700"
            font-family="Inter, Arial, sans-serif">Mobile</text>

      <rect x="183" y="580" width="118" height="25" rx="12.5"
            fill="#121b34" stroke="#65779b" stroke-width="1"/>
      <circle cx="198" cy="592.5" r="4" fill="#72e4d5"/>
      <text x="209" y="597" fill="#fff" font-size="10.5" font-weight="700"
            font-family="Inter, Arial, sans-serif">Resume at 23:41</text>

      <use xlink:href="#orbitalArtwork" x="180" y="617" width="210" height="126"/>
      <text x="183" y="781" fill="#fff" font-size="25" font-weight="820"
            font-family="Inter, Arial, sans-serif">Orbital Dawn</text>
      <text x="183" y="806" fill="#c7cce0" font-size="14" font-weight="650"
            font-family="Inter, Arial, sans-serif">S2 E4 - 26 min left</text>
      <rect x="183" y="817" width="196" height="7" rx="3.5" fill="#34374f"/>
      <rect class="progress-fill" x="183" y="817" width="93" height="7" rx="3.5" fill="url(#accent)"/>
      <circle cx="276" cy="820.5" r="6" fill="#fff"/>
    </g>
    <rect x="238" y="510" width="95" height="14" rx="7" fill="#050913"/>
  </g>

  <!-- =========================================================
       ANDROID TABLET
       ========================================================= -->
  <g id="tablet-android" transform="rotate(1.25 1125 685)">
    <rect x="820" y="535" width="610" height="300" rx="40"
          fill="url(#deviceFrame)" stroke="#7482a2" stroke-width="3"/>
    <rect x="833" y="548" width="584" height="274" rx="29"
          fill="#080d1a" stroke="#182947" stroke-width="2"/>
    <rect x="842" y="556" width="566" height="258" rx="24" fill="url(#screenBg)"/>

    <g clip-path="url(#clipTabletScreen)">
      <rect x="842" y="556" width="566" height="258" fill="#10172c"/>
      <use xlink:href="#norvaMark" x="864" y="574" width="32" height="32"/>
      <text x="906" y="598" fill="#fff" font-size="19" font-weight="760"
            font-family="Inter, Arial, sans-serif">Norva</text>

      <rect x="1272" y="575" width="108" height="27" rx="13.5"
            fill="#121b34" stroke="#65779b" stroke-width="1"/>
      <circle cx="1289" cy="588.5" r="4" fill="#72e4d5"/>
      <text x="1301" y="593" fill="#fff" font-size="11" font-weight="700"
            font-family="Inter, Arial, sans-serif">Tablet</text>

      <text x="862" y="635" fill="#fff" font-size="30" font-weight="820"
            font-family="Inter, Arial, sans-serif">Tonight, Adrien</text>
      <text x="862" y="657" fill="#bfc7dd" font-size="14"
            font-family="Inter, Arial, sans-serif">Resume exactly where you left off.</text>

      <!-- Continue card -->
      <use xlink:href="#orbitalArtwork" x="862" y="674" width="300" height="124"/>
      <rect x="875" y="686" width="99" height="24" rx="12"
            fill="#141c34" stroke="#65779b" stroke-width="1"/>
      <circle cx="890" cy="698" r="4" fill="#72e4d5"/>
      <text x="902" y="703" fill="#fff" font-size="10.5" font-weight="700"
            font-family="Inter, Arial, sans-serif">Synced</text>
      <text x="876" y="746" fill="#fff" font-size="23" font-weight="820"
            font-family="Inter, Arial, sans-serif">Orbital Dawn</text>
      <text x="876" y="768" fill="#e8e3f6" font-size="13" font-weight="650"
            font-family="Inter, Arial, sans-serif">S2 E4 - Resume at 23:41</text>
      <rect x="876" y="781" width="250" height="6" rx="3" fill="#34374f"/>
      <rect class="progress-fill" x="876" y="781" width="119" height="6" rx="3" fill="url(#accent)"/>
      <circle cx="995" cy="784" r="5.5" fill="#fff"/>

      <!-- Recommendations -->
      <text x="1190" y="689" fill="#fff" font-size="14" font-weight="800"
            font-family="Inter, Arial, sans-serif">For you</text>
      <rect x="1190" y="705" width="66" height="93" rx="13" fill="#e77aa5"/>
      <path d="M1190 798 L1222 752 L1256 798 Z" fill="#9d4ec7" opacity=".72"/>
      <rect x="1270" y="705" width="66" height="93" rx="13" fill="#6ed2c2"/>
      <circle cx="1303" cy="737" r="16" fill="#c4f0df" opacity=".76"/>
      <path d="M1270 798 L1303 760 L1336 798 Z" fill="#318f8b" opacity=".72"/>
      <rect x="1350" y="705" width="66" height="93" rx="13" fill="#7f63df"/>
      <circle cx="1383" cy="738" r="15" fill="#c1b7ff" opacity=".76"/>
    </g>
    <circle cx="1125" cy="548" r="4.5" fill="#24324d"/>
  </g>

  <!-- =========================================================
       CENTRAL SYNC HUB
       ========================================================= -->
  <g id="sync-hub">
    <circle class="sync-outer" cx="800" cy="495" r="75" fill="#13203c" stroke="url(#hubRing)" stroke-width="6"/>
    <circle cx="800" cy="495" r="58" fill="#111a34" stroke="#7c74de" stroke-width="2"/>
    <circle class="sync-core" cx="800" cy="495" r="39" fill="url(#accentSoft)"/>
    <path d="M782 496 l13 13 25-31" fill="none" stroke="#12203a" stroke-width="9"
          stroke-linecap="round" stroke-linejoin="round"/>
    <g fill="#7ce9db">
      <circle class="hub-node" cx="800" cy="416" r="5"/>
      <circle class="hub-node" cx="879" cy="495" r="5"/>
      <circle class="hub-node" cx="800" cy="574" r="5"/>
      <circle class="hub-node" cx="721" cy="495" r="5"/>
    </g>
  </g>

  <!-- =========================================================
       PLATFORM STRIP
       ========================================================= -->
  <g id="platform-strip">
    <rect x="424" y="832" width="752" height="46" rx="23"
          fill="#0d1730" fill-opacity=".9" stroke="#6879a8" stroke-opacity=".72"/>
    <!-- Web icon -->
    <rect x="465" y="844" width="33" height="22" rx="3" fill="none" stroke="#c4ceec" stroke-width="2"/>
    <path d="M470 850 H493" stroke="#c4ceec" stroke-width="1.5"/>
    <!-- TV icon -->
    <rect x="518" y="843" width="35" height="23" rx="3" fill="none" stroke="#c4ceec" stroke-width="2"/>
    <path d="M530 870 H542 M536 866 V870" stroke="#c4ceec" stroke-width="2" stroke-linecap="round"/>
    <!-- Phone icon -->
    <rect x="574" y="840" width="17" height="29" rx="3" fill="none" stroke="#c4ceec" stroke-width="2"/>
    <!-- Tablet icon -->
    <rect x="613" y="842" width="30" height="27" rx="3" fill="none" stroke="#c4ceec" stroke-width="2"/>

    <text x="882" y="862" text-anchor="middle" fill="#fff" font-size="19" font-weight="760"
          font-family="Inter, Arial, sans-serif">Web - Android TV - Android phone - Android tablet</text>
  </g>
</svg>
