<?xml version='1.0' encoding='UTF-8'?>
<svg xmlns="http://www.w3.org/2000/svg" xmlns:xlink="http://www.w3.org/1999/xlink" width="1600" height="700" viewBox="0 0 1600 700" role="img" aria-labelledby="title desc" shape-rendering="geometricPrecision">
  <title id="title">One playback, four screens</title>
  <desc id="desc">Norva playback synchronized at 23:41 across four centered devices: Web, Android TV, Android phone and Android tablet.</desc>

  <!-- Layout v2: devices centered in their cards; platform badges remain unobstructed. --><defs>
    <linearGradient id="panelBg" x1="0" y1="0" x2="1" y2="1">
      <stop offset="0" stop-color="#121D35"/>
      <stop offset="0.54" stop-color="#0D172C"/>
      <stop offset="1" stop-color="#0A1224"/>
    </linearGradient>
    <linearGradient id="panelBorder" x1="0" y1="0" x2="1" y2="1">
      <stop offset="0" stop-color="#5EE4D5" stop-opacity=".34"/>
      <stop offset=".48" stop-color="#6F79F7" stop-opacity=".28"/>
      <stop offset="1" stop-color="#C66CFF" stop-opacity=".24"/>
    </linearGradient>
    <linearGradient id="cardBg" x1="0" y1="0" x2="1" y2="1">
      <stop offset="0" stop-color="#17223B"/>
      <stop offset="1" stop-color="#10182D"/>
    </linearGradient>
    <linearGradient id="cardBorder" x1="0" y1="0" x2="1" y2="1">
      <stop offset="0" stop-color="#60739A" stop-opacity=".72"/>
      <stop offset=".55" stop-color="#4C5E88" stop-opacity=".36"/>
      <stop offset="1" stop-color="#785CAB" stop-opacity=".42"/>
    </linearGradient>
    <linearGradient id="deviceFrame" x1="0" y1="0" x2="0" y2="1">
      <stop offset="0" stop-color="#556686"/>
      <stop offset=".15" stop-color="#1C2943"/>
      <stop offset="1" stop-color="#080E1C"/>
    </linearGradient>
    <linearGradient id="screenBg" x1="0" y1="0" x2="1" y2="1">
      <stop offset="0" stop-color="#171D3B"/>
      <stop offset="1" stop-color="#1B1035"/>
    </linearGradient>
    <linearGradient id="accent" x1="0" y1="0" x2="1" y2="0">
      <stop offset="0" stop-color="#69E8D7"/>
      <stop offset=".46" stop-color="#7D6DFF"/>
      <stop offset="1" stop-color="#EB7AB9"/>
    </linearGradient>
    <linearGradient id="accentSoft" x1="0" y1="0" x2="1" y2="1">
      <stop offset="0" stop-color="#7BEBDD"/>
      <stop offset="1" stop-color="#9B6DFF"/>
    </linearGradient>
    <linearGradient id="pillBg" x1="0" y1="0" x2="1" y2="1">
      <stop offset="0" stop-color="#1A2948"/>
      <stop offset="1" stop-color="#171B38"/>
    </linearGradient>
    <linearGradient id="sky" x1="0" y1="0" x2="0" y2="1">
      <stop offset="0" stop-color="#12143B"/>
      <stop offset=".38" stop-color="#30245C"/>
      <stop offset=".72" stop-color="#B85D78"/>
      <stop offset="1" stop-color="#F39A73"/>
    </linearGradient>
    <radialGradient id="sun">
      <stop offset="0" stop-color="#FFE5A8"/>
      <stop offset=".55" stop-color="#FFB15D"/>
      <stop offset="1" stop-color="#F37D67"/>
    </radialGradient>
    <linearGradient id="mountainA" x1="0" y1="0" x2="1" y2="1">
      <stop offset="0" stop-color="#7B64E7"/>
      <stop offset="1" stop-color="#3A286F"/>
    </linearGradient>
    <linearGradient id="mountainB" x1="0" y1="0" x2="1" y2="1">
      <stop offset="0" stop-color="#493B9C"/>
      <stop offset="1" stop-color="#1D194E"/>
    </linearGradient>
    <radialGradient id="ambientCyan" cx=".2" cy=".1" r=".95">
      <stop offset="0" stop-color="#1FA9CD" stop-opacity=".13"/>
      <stop offset="1" stop-color="#1FA9CD" stop-opacity="0"/>
    </radialGradient>
    <radialGradient id="ambientPurple" cx=".8" cy=".8" r=".85">
      <stop offset="0" stop-color="#8339C7" stop-opacity=".12"/>
      <stop offset="1" stop-color="#8339C7" stop-opacity="0"/>
    </radialGradient>

    <filter id="shadow" x="-30%" y="-30%" width="160%" height="180%" color-interpolation-filters="sRGB">
      <feDropShadow dx="0" dy="16" stdDeviation="18" flood-color="#020611" flood-opacity=".58"/>
    </filter>
    <filter id="softShadow" x="-30%" y="-30%" width="160%" height="180%" color-interpolation-filters="sRGB">
      <feDropShadow dx="0" dy="8" stdDeviation="10" flood-color="#020611" flood-opacity=".42"/>
    </filter>
    <filter id="glow" x="-80%" y="-80%" width="260%" height="260%" color-interpolation-filters="sRGB">
      <feGaussianBlur stdDeviation="4.5" result="b"/>
      <feMerge><feMergeNode in="b"/><feMergeNode in="SourceGraphic"/></feMerge>
    </filter>

    <symbol id="norvaMark" viewBox="0 0 48 48">
      <rect x="2" y="2" width="44" height="44" rx="13" fill="#171D3A" stroke="#6976B7" stroke-width="2"/>
      <path d="M12 34 V14 L34 34 V14" fill="none" stroke="url(#accent)" stroke-width="6" stroke-linecap="round" stroke-linejoin="round"/>
    </symbol>

    <symbol id="orbitalArtwork" viewBox="0 0 600 240">
      <rect width="600" height="240" rx="18" fill="url(#sky)"/>
      <g opacity=".66" fill="#FFFFFF">
        <circle cx="52" cy="33" r="1.8"/><circle cx="112" cy="61" r="1.1"/>
        <circle cx="177" cy="27" r="1.6"/><circle cx="244" cy="49" r="1.1"/>
        <circle cx="329" cy="31" r="1.4"/><circle cx="386" cy="67" r="1.2"/>
        <circle cx="452" cy="26" r="1.7"/><circle cx="536" cy="54" r="1.2"/>
      </g>
      <circle cx="500" cy="65" r="38" fill="url(#sun)"/>
      <circle cx="500" cy="65" r="56" fill="#FFB46D" opacity=".11"/>
      <path d="M0 191 L105 100 L210 191 Z" fill="url(#mountainA)"/>
      <path d="M96 191 L250 73 L394 191 Z" fill="url(#mountainB)"/>
      <path d="M256 191 L410 89 L558 191 Z" fill="url(#mountainA)"/>
      <path d="M422 191 L522 122 L600 191 Z" fill="url(#mountainB)"/>
      <path d="M0 190 L94 132 L169 190 Z" fill="#8D68EE" opacity=".68"/>
      <rect y="188" width="600" height="52" fill="#15133A" opacity=".64"/>
    </symbol>

    <clipPath id="clipWeb"><rect x="76" y="204" width="298" height="192" rx="16"/></clipPath>
    <clipPath id="clipTv"><rect x="458" y="204" width="298" height="192" rx="16"/></clipPath>
    <clipPath id="clipPhone"><rect x="907" y="190" width="136" height="236" rx="27"/></clipPath>
    <clipPath id="clipTablet"><rect x="1200" y="210" width="292" height="183" rx="18"/></clipPath>

    <style>
      .sync-dot { animation: pulse 3s ease-in-out infinite; transform-box: fill-box; transform-origin: center; }
      .progress-fill { animation: breathe 4s ease-in-out infinite; }
      .card { transition: transform .25s ease; }
      @keyframes pulse { 0%,100% { opacity:.72; transform:scale(1); } 50% { opacity:1; transform:scale(1.25); } }
      @keyframes breathe { 0%,100% { opacity:.82; } 50% { opacity:1; } }
      @media (prefers-reduced-motion: reduce) { .sync-dot,.progress-fill { animation:none!important; } }
    </style>
  </defs>

  <!-- Transparent canvas; only the rounded product panel is painted. -->
  <g id="panel" filter="url(#shadow)">
    <rect x="16" y="16" width="1568" height="668" rx="28" fill="url(#panelBg)" stroke="url(#panelBorder)" stroke-width="2"/>
    <rect x="18" y="18" width="1564" height="664" rx="26" fill="url(#ambientCyan)"/>
    <rect x="18" y="18" width="1564" height="664" rx="26" fill="url(#ambientPurple)"/>
  </g>

  <!-- Header -->
  <g id="header">
    <text x="60" y="84" fill="#FFFFFF" font-size="34" font-weight="800" font-family="Inter, Arial, sans-serif">One playback, four screens</text>
    <text x="60" y="116" fill="#AEB8D1" font-size="17" font-family="Inter, Arial, sans-serif">Continue at 23:41 on Web, Android TV, Android phone or Android tablet.</text>

    <g transform="translate(1323 60)" filter="url(#softShadow)">
      <rect width="205" height="47" rx="23.5" fill="url(#pillBg)" stroke="#5D708F" stroke-opacity=".68"/>
      <circle class="sync-dot" cx="25" cy="23.5" r="7" fill="#78E6D5"/>
      <text x="44" y="30" fill="#D8E0F2" font-size="16" font-weight="700" font-family="Inter, Arial, sans-serif">Sync active</text>
    </g>
  </g>

  <!-- Shared sync rail -->
  <g id="sync-rail">
    <path d="M221 150 H1373" fill="none" stroke="#3B4B70" stroke-width="2" stroke-dasharray="6 10" opacity=".7"/>
    <path d="M221 150 H1373" fill="none" stroke="url(#accent)" stroke-width="2" stroke-dasharray="16 54" opacity=".72"/>
    <g fill="#78E6D5" stroke="#CFFFF8" stroke-width="1">
      <circle class="sync-dot" cx="221" cy="150" r="5"/>
      <circle class="sync-dot" cx="603" cy="150" r="5" style="animation-delay:.35s"/>
      <circle class="sync-dot" cx="985" cy="150" r="5" style="animation-delay:.7s"/>
      <circle class="sync-dot" cx="1373" cy="150" r="5" style="animation-delay:1.05s"/>
    </g>
  </g>

  <!-- CARD 1: WEB -->
  <g id="web-card" class="card" filter="url(#softShadow)">
    <rect x="46" y="166" width="350" height="470" rx="24" fill="url(#cardBg)" stroke="url(#cardBorder)" stroke-width="2"/>
    <g id="web-device-visual" transform="translate(-4 22)"><rect x="68" y="196" width="314" height="210" rx="20" fill="url(#deviceFrame)" stroke="#62759B" stroke-width="2"/>
    <rect x="76" y="204" width="298" height="192" rx="16" fill="url(#screenBg)"/>
    <g clip-path="url(#clipWeb)">
      <rect x="76" y="204" width="298" height="28" fill="#161F38"/>
      <circle cx="91" cy="218" r="4" fill="#FF8278"/><circle cx="105" cy="218" r="4" fill="#FFCA6E"/><circle cx="119" cy="218" r="4" fill="#63D4AE"/>
      <rect x="135" y="211" width="150" height="14" rx="7" fill="#26324E"/>
      <text x="147" y="221" fill="#AFC1DE" font-size="8.5" font-family="Inter, Arial, sans-serif">app.norva.tv</text>
      <use xlink:href="#orbitalArtwork" x="84" y="240" width="282" height="146"/>
      <rect x="94" y="251" width="67" height="21" rx="10.5" fill="#151D35" stroke="#66789C"/>
      <circle cx="108" cy="261.5" r="3.5" fill="#74E4D4"/>
      <text x="119" y="265" fill="#FFFFFF" font-size="9.5" font-weight="700" font-family="Inter, Arial, sans-serif">Synced</text>
    </g>

    </g><g transform="translate(179 180)">
      <rect width="84" height="28" rx="14" fill="#17223C" stroke="#61749B"/>
      <circle cx="17" cy="14" r="4.5" fill="#76E5D4"/>
      <text x="31" y="19" fill="#FFFFFF" font-size="12" font-weight="800" font-family="Inter, Arial, sans-serif">WEB</text>
    </g>

    <text x="68" y="460" fill="#FFFFFF" font-size="24" font-weight="800" font-family="Inter, Arial, sans-serif">Orbital Dawn</text>
    <text x="68" y="488" fill="#B5BED3" font-size="16" font-family="Inter, Arial, sans-serif">Browse and resume on the Web</text>
    <text x="68" y="526" fill="#E7EAF5" font-size="14" font-weight="750" font-family="Inter, Arial, sans-serif">S2 · E4</text>
    <text x="342" y="526" text-anchor="end" fill="#AEB8D1" font-size="13" font-family="Inter, Arial, sans-serif">23:41 / 49:41</text>
    <rect x="68" y="542" width="274" height="8" rx="4" fill="#343B56"/>
    <rect class="progress-fill" x="68" y="542" width="131" height="8" rx="4" fill="url(#accent)"/>
    <circle cx="199" cy="546" r="6" fill="#FFFFFF"/>
    <g transform="translate(68 574)">
      <rect width="171" height="37" rx="18.5" fill="#FFFFFF"/>
      <circle cx="21" cy="18.5" r="10" fill="#6B63DE"/>
      <path d="M18 13 L18 24 L26 18.5 Z" fill="#FFFFFF"/>
      <text x="40" y="24" fill="#13182B" font-size="14" font-weight="800" font-family="Inter, Arial, sans-serif">Resume at 23:41</text>
    </g>
  </g>

  <!-- CARD 2: ANDROID TV -->
  <g id="tv-card" class="card" filter="url(#softShadow)">
    <rect x="428" y="166" width="350" height="470" rx="24" fill="url(#cardBg)" stroke="url(#cardBorder)" stroke-width="2"/>
    <g id="tv-device-visual" transform="translate(-4 22)"><rect x="450" y="196" width="314" height="210" rx="20" fill="url(#deviceFrame)" stroke="#62759B" stroke-width="2"/>
    <rect x="458" y="204" width="298" height="192" rx="16" fill="url(#screenBg)"/>
    <g clip-path="url(#clipTv)">
      <use xlink:href="#orbitalArtwork" x="458" y="204" width="298" height="192"/>
      <rect x="458" y="204" width="298" height="192" fill="#0C1128" opacity=".18"/>
      <use xlink:href="#norvaMark" x="475" y="220" width="26" height="26"/>
      <text x="509" y="239" fill="#FFFFFF" font-size="14" font-weight="760" font-family="Inter, Arial, sans-serif">Norva</text>
      <text x="476" y="284" fill="#E4E1F3" font-size="9.5" font-weight="700" letter-spacing="1.7" font-family="Inter, Arial, sans-serif">CONTINUE WATCHING</text>
      <text x="476" y="315" fill="#FFFFFF" font-size="28" font-weight="820" font-family="Inter, Arial, sans-serif">Orbital Dawn</text>
      <g transform="translate(476 333)">
        <rect width="91" height="34" rx="17" fill="#FFFFFF"/>
        <circle cx="18" cy="17" r="9" fill="#6B63DE"/>
        <path d="M15 12 L15 22 L23 17 Z" fill="#FFFFFF"/>
        <text x="34" y="22" fill="#13182B" font-size="12" font-weight="800" font-family="Inter, Arial, sans-serif">Resume</text>
      </g>
      <rect x="579" y="346" width="149" height="6" rx="3" fill="#373A54"/>
      <rect class="progress-fill" x="579" y="346" width="71" height="6" rx="3" fill="url(#accent)"/>
      <circle cx="650" cy="349" r="5" fill="#FFFFFF"/>
    </g>
    <path d="M564 406 H650 L670 435 H544 Z" fill="url(#deviceFrame)"/>
    <rect x="520" y="432" width="174" height="9" rx="4.5" fill="#3A4663"/>

    </g><g transform="translate(541 180)">
      <rect width="124" height="28" rx="14" fill="#17223C" stroke="#61749B"/>
      <circle cx="17" cy="14" r="4.5" fill="#76E5D4"/>
      <text x="31" y="19" fill="#FFFFFF" font-size="12" font-weight="800" font-family="Inter, Arial, sans-serif">ANDROID TV</text>
    </g>

    <text x="450" y="494" fill="#FFFFFF" font-size="24" font-weight="800" font-family="Inter, Arial, sans-serif">Big-screen playback</text>
    <text x="450" y="522" fill="#B5BED3" font-size="16" font-family="Inter, Arial, sans-serif">Remote-friendly Android TV controls</text>
    <text x="450" y="558" fill="#E7EAF5" font-size="14" font-weight="750" font-family="Inter, Arial, sans-serif">Playing on Android TV</text>
    <text x="724" y="558" text-anchor="end" fill="#AEB8D1" font-size="13" font-family="Inter, Arial, sans-serif">23:41 synced</text>
    <rect x="450" y="574" width="274" height="8" rx="4" fill="#343B56"/>
    <rect class="progress-fill" x="450" y="574" width="131" height="8" rx="4" fill="url(#accent)"/>
    <circle cx="581" cy="578" r="6" fill="#FFFFFF"/>
    <g transform="translate(450 600)">
      <rect width="190" height="28" rx="14" fill="#18233E" stroke="#607397"/>
      <circle cx="17" cy="14" r="4" fill="#75E5D4"/>
      <text x="30" y="19" fill="#DDE4F4" font-size="12" font-weight="700" font-family="Inter, Arial, sans-serif">Living room · Online</text>
    </g>
  </g>

  <!-- CARD 3: ANDROID PHONE -->
  <g id="phone-card" class="card" filter="url(#softShadow)">
    <rect x="810" y="166" width="350" height="470" rx="24" fill="url(#cardBg)" stroke="url(#cardBorder)" stroke-width="2"/>
    <g id="phone-device-visual" transform="translate(107.5 57.8) scale(.9)"><rect x="895" y="178" width="160" height="264" rx="37" fill="url(#deviceFrame)" stroke="#7180A2" stroke-width="2"/>
    <rect x="907" y="190" width="136" height="236" rx="27" fill="url(#screenBg)"/>
    <g clip-path="url(#clipPhone)">
      <rect x="907" y="190" width="136" height="236" fill="#11182D"/>
      <use xlink:href="#norvaMark" x="918" y="206" width="23" height="23"/>
      <text x="947" y="223" fill="#FFFFFF" font-size="12" font-weight="760" font-family="Inter, Arial, sans-serif">Norva</text>
      <rect x="919" y="238" width="94" height="20" rx="10" fill="#151E36" stroke="#61749A"/>
      <circle cx="931" cy="248" r="3" fill="#74E4D4"/>
      <text x="940" y="252" fill="#FFFFFF" font-size="8.5" font-weight="700" font-family="Inter, Arial, sans-serif">Resume 23:41</text>
      <use xlink:href="#orbitalArtwork" x="919" y="270" width="112" height="92"/>
      <text x="919" y="386" fill="#FFFFFF" font-size="17" font-weight="820" font-family="Inter, Arial, sans-serif">Orbital Dawn</text>
      <text x="919" y="406" fill="#B8C0D5" font-size="10" font-family="Inter, Arial, sans-serif">S2 · E4 · 26 min left</text>
      <rect x="919" y="414" width="112" height="5" rx="2.5" fill="#343B56"/>
      <rect class="progress-fill" x="919" y="414" width="53" height="5" rx="2.5" fill="url(#accent)"/>
      <circle cx="972" cy="416.5" r="4" fill="#FFFFFF"/>
    </g>
    <rect x="942" y="187" width="66" height="9" rx="4.5" fill="#050914"/>

    </g><g transform="translate(912.5 180)">
      <rect width="145" height="28" rx="14" fill="#17223C" stroke="#61749B"/>
      <circle cx="17" cy="14" r="4.5" fill="#76E5D4"/>
      <text x="31" y="19" fill="#FFFFFF" font-size="12" font-weight="800" font-family="Inter, Arial, sans-serif">ANDROID PHONE</text>
    </g>

    <text x="832" y="478" fill="#FFFFFF" font-size="24" font-weight="800" font-family="Inter, Arial, sans-serif">Resume on the go</text>
    <text x="832" y="508" fill="#B5BED3" font-size="16" font-family="Inter, Arial, sans-serif">Your position follows you instantly</text>
    <text x="832" y="548" fill="#E7EAF5" font-size="14" font-weight="750" font-family="Inter, Arial, sans-serif">Android phone</text>
    <text x="1116" y="548" text-anchor="end" fill="#AEB8D1" font-size="13" font-family="Inter, Arial, sans-serif">23:41 synced</text>
    <rect x="832" y="564" width="284" height="8" rx="4" fill="#343B56"/>
    <rect class="progress-fill" x="832" y="564" width="136" height="8" rx="4" fill="url(#accent)"/>
    <circle cx="968" cy="568" r="6" fill="#FFFFFF"/>
    <g transform="translate(832 592)">
      <rect width="190" height="28" rx="14" fill="#18233E" stroke="#607397"/>
      <circle cx="17" cy="14" r="4" fill="#75E5D4"/>
      <text x="30" y="19" fill="#DDE4F4" font-size="12" font-weight="700" font-family="Inter, Arial, sans-serif">Ready to continue</text>
    </g>
  </g>

  <!-- CARD 4: ANDROID TABLET -->
  <g id="tablet-card" class="card" filter="url(#softShadow)">
    <rect x="1192" y="166" width="362" height="470" rx="24" fill="url(#cardBg)" stroke="url(#cardBorder)" stroke-width="2"/>
    <g id="tablet-device-visual" transform="translate(27 20)"><rect x="1188" y="198" width="316" height="207" rx="24" fill="url(#deviceFrame)" stroke="#7180A2" stroke-width="2"/>
    <rect x="1200" y="210" width="292" height="183" rx="18" fill="url(#screenBg)"/>
    <g clip-path="url(#clipTablet)">
      <rect x="1200" y="210" width="292" height="183" fill="#11182D"/>
      <use xlink:href="#norvaMark" x="1214" y="222" width="24" height="24"/>
      <text x="1245" y="240" fill="#FFFFFF" font-size="13" font-weight="760" font-family="Inter, Arial, sans-serif">Norva</text>
      <text x="1214" y="269" fill="#FFFFFF" font-size="19" font-weight="820" font-family="Inter, Arial, sans-serif">Good evening, Adrien</text>
      <text x="1214" y="286" fill="#B9C2D8" font-size="9.5" font-family="Inter, Arial, sans-serif">Continue exactly where you stopped.</text>
      <use xlink:href="#orbitalArtwork" x="1214" y="300" width="157" height="80"/>
      <text x="1222" y="343" fill="#FFFFFF" font-size="14" font-weight="820" font-family="Inter, Arial, sans-serif">Orbital Dawn</text>
      <text x="1222" y="359" fill="#E8E3F6" font-size="9" font-family="Inter, Arial, sans-serif">S2 · E4 · 23:41</text>
      <rect x="1382" y="300" width="43" height="80" rx="10" fill="#E878A7"/>
      <path d="M1382 380 L1403 347 L1425 380 Z" fill="#9E50C8" opacity=".75"/>
      <rect x="1433" y="300" width="43" height="80" rx="10" fill="#6DD0C0"/>
      <circle cx="1454.5" cy="329" r="11" fill="#C6F0E1" opacity=".78"/>
      <path d="M1433 380 L1454 348 L1476 380 Z" fill="#318F89" opacity=".75"/>
    </g>
    <circle cx="1346" cy="207" r="3.5" fill="#27334D"/>

    </g><g transform="translate(1299 180)">
      <rect width="148" height="28" rx="14" fill="#17223C" stroke="#61749B"/>
      <circle cx="17" cy="14" r="4.5" fill="#76E5D4"/>
      <text x="31" y="19" fill="#FFFFFF" font-size="12" font-weight="800" font-family="Inter, Arial, sans-serif">ANDROID TABLET</text>
    </g>

    <text x="1214" y="456" fill="#FFFFFF" font-size="24" font-weight="800" font-family="Inter, Arial, sans-serif">Continue on tablet</text>
    <text x="1214" y="484" fill="#B5BED3" font-size="16" font-family="Inter, Arial, sans-serif">Playback and recommendations together</text>
    <text x="1214" y="524" fill="#E7EAF5" font-size="14" font-weight="750" font-family="Inter, Arial, sans-serif">Android tablet</text>
    <text x="1510" y="524" text-anchor="end" fill="#AEB8D1" font-size="13" font-family="Inter, Arial, sans-serif">23:41 synced</text>
    <rect x="1214" y="540" width="296" height="8" rx="4" fill="#343B56"/>
    <rect class="progress-fill" x="1214" y="540" width="141" height="8" rx="4" fill="url(#accent)"/>
    <circle cx="1355" cy="544" r="6" fill="#FFFFFF"/>
    <g transform="translate(1214 574)">
      <rect width="206" height="37" rx="18.5" fill="#18233E" stroke="#607397"/>
      <circle cx="21" cy="18.5" r="5" fill="#75E5D4"/>
      <text x="37" y="24" fill="#DDE4F4" font-size="13" font-weight="700" font-family="Inter, Arial, sans-serif">Synced recommendations</text>
    </g>
  </g>

  <!-- Footer statement -->
  <g id="footer-copy">
    <text x="800" y="665" text-anchor="middle" fill="#AEB8D1" font-size="14" font-family="Inter, Arial, sans-serif">One Norva account · four supported screens · one continuous viewing position</text>
  </g>
</svg>
