<svg xmlns="http://www.w3.org/2000/svg" viewBox="0 0 96 96" role="img" aria-label="Movies">
  <defs>
    <linearGradient id="norva-movies-g" x1="18" y1="18" x2="79" y2="78" gradientUnits="userSpaceOnUse">
      <stop offset="0" stop-color="#6ff3ff"/>
      <stop offset="0.48" stop-color="#377dff"/>
      <stop offset="1" stop-color="#d65bff"/>
    </linearGradient>
    <filter id="norva-movies-glow" x="-45%" y="-45%" width="190%" height="190%">
      <feGaussianBlur stdDeviation="3.2" result="blur"/>
      <feColorMatrix in="blur" type="matrix" values="0 0 0 0 0.04 0 0 0 0 0.42 0 0 0 0 1 0 0 0 .82 0"/>
      <feMerge><feMergeNode/><feMergeNode in="SourceGraphic"/></feMerge>
    </filter>
  </defs>
  <path d="M22 34h52a7 7 0 0 1 7 7v30a7 7 0 0 1-7 7H22a7 7 0 0 1-7-7V41a7 7 0 0 1 7-7Z" fill="url(#norva-movies-g)" opacity=".2"/>
  <path d="M18 35h60v39H18z" fill="none" stroke="url(#norva-movies-g)" stroke-width="7" stroke-linejoin="round" filter="url(#norva-movies-glow)"/>
  <path d="M23 18h14l-5 17H18zm21 0h14l-5 17H39zm21 0h14l-5 17H60z" fill="url(#norva-movies-g)" filter="url(#norva-movies-glow)"/>
</svg>
